# xmcd CD database file
#
# Track frame offsets:
#	183
#	11310
#	19595
#	29650
#	41523
#	55030
#	66683
#	73785
#	87525
#	98043
#	103498
#	116060
#	126183
#	136390
#
# Disc length: 1951 seconds
#
# Revision: 2
# Processed by: cddbd v1.5.2PL0 Copyright (c) Steve Scherf et al.
# Submitted via: CDex 1.79
#
DISCID=cb079d0e
DTITLE=Willie Nelson - Suffering In Silence
DYEAR=1990
DGENRE=Country
TTITLE0=Suffering In Silence
TTITLE1=You Wouldn't Cross The Street To Say Goodbye
TTITLE2=I Didn't Sleep A Wink
TTITLE3=End Of Understanding
TTITLE4=Undo The Wrong
TTITLE5=December Days
TTITLE6=Both Ends Of The Candle
TTITLE7=No Tomorrow In Sight
TTITLE8=Blame It On The Time
TTITLE9=The Ghost
TTITLE10=Shelter Of My Arms
TTITLE11=Healing Hands Off Time
TTITLE12=Pride Winds Again
TTITLE13=A New Way To Cry
EXTD=YEAR: 1990
EXTT0=
EXTT1=
EXTT2=
EXTT3=
EXTT4=
EXTT5=
EXTT6=
EXTT7=
EXTT8=
EXTT9=
EXTT10=
EXTT11=
EXTT12=
EXTT13=
PLAYORDER=
